<svg width="259" height="164" viewBox="0 0 259 164" fill="none" xmlns="http://www.w3.org/2000/svg">
<path d="M238.015 0.469849H21.0464C16.5964 0.469849 12.9889 3.90772 12.9889 8.14857V147.348C12.9889 151.589 16.5964 155.027 21.0464 155.027H238.015C242.465 155.027 246.072 151.589 246.072 147.348V8.14857C246.072 3.90772 242.465 0.469849 238.015 0.469849Z" fill="#606062" stroke="#373435" stroke-width="0.755906" stroke-miterlimit="22.9256"/>
<path d="M236.402 9.81079H22.6583C21.0696 9.81079 19.7816 10.9567 19.7816 12.3701V143.126C19.7816 144.539 21.0696 145.685 22.6583 145.685H236.402C237.991 145.685 239.279 144.539 239.279 143.126V12.3701C239.279 10.9567 237.991 9.81079 236.402 9.81079Z" fill="#E6E7E8" stroke="#373435" stroke-width="0.755906" stroke-miterlimit="22.9256"/>
<path fill-rule="evenodd" clip-rule="evenodd" d="M1.31342 155.026H257.747V155.841C257.747 160.064 254.293 163.519 250.07 163.519H8.99057C4.76815 163.519 1.31342 160.064 1.31342 155.841V155.026Z" fill="#606062" stroke="#373435" stroke-width="0.755906" stroke-miterlimit="22.9256"/>
<path d="M62.7662 33.9647H22.6213V145.686H62.7662V33.9647Z" fill="#FEFEFE"/>
<path d="M192.09 33.9647H67.6407V145.686H192.09V33.9647Z" fill="#FEFEFE"/>
<path d="M236.343 33.9647H194.958V145.686H236.343V33.9647Z" fill="#FEFEFE"/>
<path fill-rule="evenodd" clip-rule="evenodd" d="M64.6995 14.0725C64.7074 13.6681 65.1437 13.3522 66.2 13.4284C64.7793 13.2438 63.955 13.526 63.9525 14.3253C63.951 14.7148 64.1004 15.163 64.33 15.612C64.4902 15.1739 64.6182 14.6677 64.6995 14.0725ZM65.0994 16.7911C65.2615 16.9971 65.428 17.1889 65.5886 17.3594C66.4288 18.2483 67.4493 19.7431 67.3985 20.0761C67.3651 20.2933 67.2799 20.3887 67.0442 20.4424C67.4337 20.5356 68.4331 19.4911 68.4396 18.9362C68.449 18.1249 66.8477 16.9992 65.7072 15.7429C65.531 16.1056 65.3254 16.4534 65.0994 16.7911Z" fill="url(#paint0_linear_100_828)"/>
<path fill-rule="evenodd" clip-rule="evenodd" d="M66.5699 18.5572C65.5364 18.2018 64.3847 18.0122 63.3131 17.994C62.8381 17.9861 62.2778 18.1648 61.8782 18.587C61.5765 18.9058 61.3111 19.378 61.3524 19.9832C61.4442 19.2539 62.3982 18.9504 63.047 19.0026C64.4645 19.1168 65.8519 20.215 67.0442 20.4424C67.2799 20.3887 67.3651 20.2933 67.3985 20.0761C67.4297 19.8719 67.0569 19.2289 66.5699 18.5572Z" fill="url(#paint1_linear_100_828)"/>
<path fill-rule="evenodd" clip-rule="evenodd" d="M66.5699 18.5572C66.5108 18.5368 66.4513 18.5173 66.3918 18.498C66.7911 19.2607 67.3735 20.1301 66.9235 20.4162C66.9641 20.426 67.0043 20.4347 67.0442 20.4423C67.2799 20.3886 67.3651 20.2932 67.3985 20.076C67.4297 19.8718 67.0569 19.2288 66.5699 18.5572Z" fill="#483266"/>
<path fill-rule="evenodd" clip-rule="evenodd" d="M62.6445 19.8694C62.4189 20.1555 62.1314 20.4641 61.7285 20.4659C61.5247 20.467 61.335 20.1863 61.3524 19.9832C61.4442 19.2539 62.3982 18.9503 63.047 19.0026C63.1405 19.0102 63.2337 19.0218 63.3269 19.0374C63.0945 19.3137 62.8649 19.5897 62.6445 19.8694ZM62.531 18.1438C63.3654 17.3553 64.3862 16.3743 64.6995 14.0725C65.2061 13.9394 66.1775 14.5443 65.9962 15.0553C65.6042 16.1611 64.9116 17.1203 64.1592 18.0426C63.8741 18.015 63.5909 17.9987 63.3132 17.994C63.064 17.9897 62.7913 18.0368 62.531 18.1438Z" fill="url(#paint2_linear_100_828)"/>
<path fill-rule="evenodd" clip-rule="evenodd" d="M61.352 20.0318C61.3509 20.0151 61.3509 19.9988 61.3524 19.9832C61.4441 19.2539 62.3982 18.9503 63.0469 19.0025C63.1405 19.0102 63.2337 19.0218 63.3269 19.0374C63.2228 19.161 63.1195 19.2847 63.0172 19.4084C62.9316 19.4029 62.8464 19.4008 62.7612 19.4022C62.2822 19.4098 61.657 19.6252 61.352 20.0318Z" fill="#420D85" fill-opacity="0.501961"/>
<path d="M70.5152 18.8393C70.0927 18.8393 69.7885 18.7345 69.6017 18.5234C69.4153 18.3135 69.3218 17.9791 69.3218 17.5196V17.0673H70.237V17.6461C70.237 17.7528 70.2534 17.8362 70.2856 17.8971C70.3179 17.9573 70.3745 17.9878 70.455 17.9878C70.5384 17.9878 70.5968 17.9628 70.6301 17.9142C70.6624 17.8648 70.6784 17.7843 70.6784 17.6719C70.6784 17.5301 70.6642 17.4119 70.6363 17.3158C70.6084 17.2208 70.5591 17.1294 70.4902 17.0423C70.4209 16.956 70.3248 16.8545 70.2019 16.7388L69.7874 16.3449C69.477 16.0515 69.3218 15.7168 69.3218 15.3399C69.3218 14.9461 69.4135 14.6454 69.5963 14.4391C69.7794 14.2316 70.0452 14.1287 70.3915 14.1287C70.8158 14.1287 71.1171 14.2418 71.2948 14.4677C71.4725 14.694 71.5614 15.0375 71.5614 15.4977H70.62V15.1804C70.62 15.1166 70.6022 15.0679 70.5663 15.0331C70.5304 14.998 70.4818 14.9802 70.4209 14.9802C70.3473 14.9802 70.2936 15.0009 70.2595 15.0422C70.2244 15.0832 70.2073 15.1361 70.2073 15.201C70.2073 15.2656 70.2254 15.3363 70.2603 15.4118C70.2954 15.4872 70.3643 15.5732 70.4677 15.6718L71.0015 16.1842C71.1081 16.2858 71.2071 16.3935 71.2956 16.5063C71.3855 16.6194 71.4573 16.7504 71.512 16.9005C71.5657 17.0503 71.5925 17.2335 71.5925 17.4485C71.5925 17.883 71.5128 18.2239 71.3521 18.4698C71.1926 18.7164 70.9133 18.8393 70.5152 18.8393Z" fill="#36457F"/>
<path d="M72.6453 18.8394C72.4342 18.8394 72.2736 18.7955 72.1626 18.7077C72.0513 18.6207 71.9759 18.4977 71.9356 18.3414C71.895 18.1844 71.8743 18.0005 71.8743 17.7905V14.8536H72.8211V17.6803C72.8211 17.838 72.8335 17.9475 72.8578 18.0103C72.8821 18.0723 72.9404 18.1035 73.0311 18.1035C73.1297 18.1035 73.1914 18.0596 73.2168 17.9719C73.2418 17.8837 73.2545 17.771 73.2545 17.6328V14.8536H74.193V18.7973H73.2516V18.3766C73.1925 18.5271 73.1207 18.6421 73.038 18.7211C72.9546 18.7998 72.8237 18.8394 72.6453 18.8394Z" fill="#36457F"/>
<path d="M74.5715 18.7973V14.8536H75.5281V15.2932C75.5738 15.1409 75.6543 15.0215 75.7704 14.9352C75.8861 14.85 76.0315 14.8069 76.2063 14.8069V15.5931C76.129 15.5931 76.0376 15.6011 75.9307 15.6181C75.8233 15.6345 75.7298 15.6566 75.6493 15.6864C75.5684 15.715 75.5281 15.7473 75.5281 15.7824V18.7973H74.5715Z" fill="#36457F"/>
<path d="M76.9402 18.7973L76.3067 14.8536H77.2495L77.4758 17.4881L77.7304 14.8536H78.6717L78.0274 18.7973H76.9402Z" fill="#36457F"/>
<path d="M80.0229 18.8393C79.743 18.8393 79.5196 18.7864 79.3528 18.6816C79.1867 18.5764 79.0674 18.4248 78.9956 18.2264C78.9238 18.0291 78.8879 17.7905 78.8879 17.5116V15.9267C78.8879 15.5608 78.993 15.2834 79.203 15.0951C79.4137 14.9065 79.7027 14.8123 80.0704 14.8123C80.8279 14.8123 81.2065 15.184 81.2065 15.9267V16.2129C81.2065 16.5603 81.2029 16.7935 81.1956 16.9121H79.8293V17.6748C79.8293 17.7448 79.8336 17.8137 79.8416 17.8811C79.8507 17.9482 79.8706 18.0041 79.9011 18.048C79.9315 18.0918 79.9816 18.1136 80.0497 18.1136C80.1476 18.1136 80.2086 18.0712 80.234 17.9859C80.2582 17.9007 80.2706 17.7905 80.2706 17.6541V17.2755H81.2065V17.4989C81.2065 17.793 81.1695 18.04 81.097 18.2384C81.0241 18.4375 80.9012 18.5873 80.7289 18.6877C80.5567 18.7893 80.321 18.8393 80.0229 18.8393ZM79.8238 16.4446H80.2706V15.9133C80.2706 15.7715 80.2528 15.6692 80.2176 15.6072C80.1828 15.5445 80.1306 15.514 80.0599 15.514C79.9845 15.514 79.9272 15.5437 79.8858 15.6029C79.8445 15.6631 79.8238 15.7661 79.8238 15.9133V16.4446Z" fill="#36457F"/>
<path d="M81.472 19.4541V18.8575H81.9242C81.9923 18.8575 82.0264 18.8339 82.0264 18.7864C82.0264 18.7625 82.0235 18.7371 82.0184 18.7103L81.4009 14.8536H82.3027L82.5656 17.7564L82.875 14.8536H83.7822L83.0519 19.0019C83.0251 19.1516 82.9747 19.2641 82.9003 19.3402C82.8256 19.4164 82.7038 19.4541 82.5341 19.4541H81.472Z" fill="#36457F"/>
<path d="M84.0463 18.7973V14.1708H85.268C85.524 14.1708 85.7267 14.2273 85.8764 14.3412C86.0262 14.4554 86.1339 14.6176 86.1984 14.8275C86.263 15.0375 86.2953 15.2889 86.2953 15.5797C86.2953 15.8604 86.2684 16.1045 86.2148 16.312C86.16 16.519 86.0632 16.6804 85.9239 16.7947C85.784 16.9085 85.5867 16.9651 85.331 16.9651H84.955V18.7973H84.0463ZM84.955 16.1342H85.0079C85.1791 16.1342 85.2843 16.0867 85.3227 15.9895C85.3615 15.8938 85.3811 15.7509 85.3811 15.5634C85.3811 15.3886 85.3622 15.253 85.3245 15.1579C85.2868 15.0618 85.198 15.0143 85.0573 15.0143H84.955V16.1342Z" fill="#36457F"/>
<path d="M86.5715 18.7973V14.8536H87.5281V15.2932C87.5738 15.1409 87.6543 15.0215 87.7704 14.9352C87.8861 14.85 88.0315 14.8069 88.2063 14.8069V15.5931C88.129 15.5931 88.0376 15.6011 87.9307 15.6181C87.8233 15.6345 87.7298 15.6566 87.6493 15.6864C87.5684 15.715 87.5281 15.7473 87.5281 15.7824V18.7973H86.5715Z" fill="#36457F"/>
<path d="M89.5836 18.8393C88.7985 18.8393 88.4061 18.432 88.4061 17.6171V16.0344C88.4061 15.6631 88.5102 15.3661 88.7183 15.1445C88.9276 14.9229 89.2155 14.8123 89.5836 14.8123C89.9531 14.8123 90.2428 14.9229 90.451 15.1445C90.6591 15.3661 90.7643 15.6631 90.7643 16.0344V17.6171C90.7643 18.432 90.3701 18.8393 89.5836 18.8393ZM89.5836 18.1136C89.6623 18.1136 89.7188 18.0857 89.7529 18.0284C89.787 17.9718 89.804 17.8989 89.804 17.8112V15.8847C89.804 15.6547 89.7304 15.5401 89.5836 15.5401C89.4363 15.5401 89.3627 15.6547 89.3627 15.8847V17.8112C89.3627 17.8989 89.3798 17.9718 89.4139 18.0284C89.4479 18.0857 89.5045 18.1136 89.5836 18.1136Z" fill="#36457F"/>
<path d="M42.6597 25.7822H22.6213V31.7114H42.6597V25.7822Z" fill="#3E4095"/>
<path d="M192.09 25.7822H172.052V31.7114H192.09V25.7822Z" fill="#3E4095"/>
<path d="M168.376 25.7822H148.337V31.7114H168.376V25.7822Z" fill="#EC268F"/>
<path d="M144.661 25.7822H124.623V31.7114H144.661V25.7822Z" fill="#7A75B5"/>
<path d="M236.343 25.7822H223.307V31.7114H236.343V25.7822Z" fill="#3E4095"/>
<path d="M108.935 13.8262H94.7952V19.7554H108.935V13.8262Z" fill="#3E4095"/>
<path d="M226.717 35.9191H204.584V40.0886H226.717V35.9191Z" fill="#3E4095"/>
<path d="M188.462 37.4169H71.2684V42.1772H188.462V37.4169Z" fill="#E6E7E8"/>
<path d="M188.462 44.1121H71.2684V48.8724H188.462V44.1121Z" fill="#96989A"/>
<path d="M188.462 50.8073H71.2684V55.5676H188.462V50.8073Z" fill="#E6E7E8"/>
<path d="M188.462 57.5024H71.2684V62.2628H188.462V57.5024Z" fill="#E6E7E8"/>
<path d="M188.462 64.1976H71.2684V68.958H188.462V64.1976Z" fill="#E6E7E8"/>
<path d="M188.462 70.8928H71.2684V75.6532H188.462V70.8928Z" fill="#E6E7E8"/>
<path d="M188.462 77.588H71.2684V82.3484H188.462V77.588Z" fill="#E6E7E8"/>
<path d="M233.49 42.532H197.81V71.1069H233.49V42.532Z" fill="#E6E7E8"/>
<path d="M224.924 76.7188H197.115V80.0201H224.924V76.7188Z" fill="#D2D3D5"/>
<path d="M215.597 81.9901H197.115V84.4236H215.597V81.9901Z" fill="#EC268F"/>
<path d="M215.597 85.1765H197.115V87.61H215.597V85.1765Z" fill="#D2D3D5"/>
<path d="M215.597 88.3633H197.115V90.7968H215.597V88.3633Z" fill="#EC268F"/>
<path d="M215.597 91.5497H197.115V93.9832H215.597V91.5497Z" fill="#EC268F"/>
<path d="M215.597 94.7365H197.115V97.1699H215.597V94.7365Z" fill="#D2D3D5"/>
<path d="M215.597 97.9229H197.115V100.356H215.597V97.9229Z" fill="#D2D3D5"/>
<path d="M233.49 81.9901H218.197V84.4236H233.49V81.9901Z" fill="#D2D3D5"/>
<path d="M233.49 85.1765H218.197V87.61H233.49V85.1765Z" fill="#D2D3D5"/>
<path d="M233.49 88.3633H218.197V90.7968H233.49V88.3633Z" fill="#E6E7E8"/>
<path d="M42.6597 35.2192H24.0512V39.0715H42.6597V35.2192Z" fill="#91D8F7"/>
<defs>
<linearGradient id="paint0_linear_100_828" x1="66.196" y1="13.374" x2="66.196" y2="20.4482" gradientUnits="userSpaceOnUse">
<stop stop-color="white"/>
<stop offset="1" stop-color="white" stop-opacity="0"/>
</linearGradient>
<linearGradient id="paint1_linear_100_828" x1="61.3481" y1="19.218" x2="67.3999" y2="19.218" gradientUnits="userSpaceOnUse">
<stop stop-color="#BF00FF"/>
<stop offset="1" stop-color="#3C0E80"/>
</linearGradient>
<linearGradient id="paint2_linear_100_828" x1="63.6849" y1="14.0538" x2="63.6849" y2="20.4659" gradientUnits="userSpaceOnUse">
<stop stop-color="white"/>
<stop offset="1" stop-color="white" stop-opacity="0"/>
</linearGradient>
</defs>
</svg>
