<svg width="19" height="20" viewBox="0 0 19 20" fill="none" xmlns="http://www.w3.org/2000/svg">
<path d="M9.49992 0.83667C12.1232 0.83667 14.4983 1.89425 16.2175 3.60405C17.9366 5.31385 19 7.67599 19 10.285C19 12.894 17.9366 15.2561 16.2174 16.9659C14.4983 18.6757 12.1232 19.7333 9.49992 19.7333C6.87667 19.7333 4.50164 18.6757 2.78252 16.9659C1.06337 15.2561 0 12.894 0 10.285C0 7.67599 1.06337 5.31388 2.78248 3.60408C4.50164 1.89425 6.87667 0.83667 9.49992 0.83667ZM8.88132 12.8844C8.87672 12.723 8.87438 12.6009 8.87438 12.5202C8.87438 12.0432 8.94158 11.633 9.07827 11.2874C9.17792 11.0247 9.33779 10.762 9.56022 10.497C9.7224 10.3034 10.0167 10.0223 10.4384 9.65125C10.8624 9.28026 11.1358 8.98528 11.2632 8.76405C11.3907 8.54054 11.4532 8.30087 11.4532 8.03819C11.4532 7.56348 11.2679 7.14637 10.8972 6.78687C10.5264 6.42738 10.0723 6.24764 9.53474 6.24764C9.0134 6.24764 8.58012 6.41126 8.23255 6.73617C7.88268 7.06342 7.65564 7.57268 7.54674 8.26632L6.29552 8.11423C6.40907 7.19015 6.7427 6.4804 7.30111 5.98954C7.85953 5.49872 8.59636 5.25214 9.51389 5.25214C10.4847 5.25214 11.2586 5.51483 11.8379 6.04257C12.4148 6.57027 12.7044 7.20859 12.7044 7.95752C12.7044 8.39074 12.6025 8.7894 12.3986 9.15351C12.1947 9.51993 11.7961 9.96234 11.203 10.4855C10.8045 10.8357 10.545 11.0938 10.4221 11.2597C10.2994 11.4256 10.209 11.6169 10.1511 11.8335C10.0932 12.0479 10.0584 12.3981 10.0491 12.8844H8.88132ZM8.65889 15.3178V13.9352H10.0491V15.3178H8.65889ZM15.1496 4.66613C13.7038 3.22821 11.7063 2.3388 9.49992 2.3388C7.29364 2.3388 5.29616 3.22821 3.85038 4.66616C2.40463 6.10408 1.51035 8.09068 1.51035 10.285C1.51035 12.4793 2.40463 14.4659 3.85042 15.9038C5.29616 17.3417 7.29364 18.2311 9.49992 18.2311C11.7063 18.2311 13.7038 17.3417 15.1495 15.9038C16.5954 14.4659 17.4897 12.4793 17.4897 10.285C17.4897 8.09068 16.5954 6.10404 15.1496 4.66613Z" fill="white"/>
</svg>
