<svg width="15" height="20" viewBox="0 0 15 20" fill="none" xmlns="http://www.w3.org/2000/svg">
<path d="M7.50006 0.83667C8.95615 0.83667 10.2745 1.41964 11.2288 2.36209C12.1831 3.30453 12.7734 4.60656 12.7734 6.04465C12.7734 7.4827 12.1831 8.78474 11.2288 9.72718C10.9981 9.95503 10.746 10.1618 10.4759 10.3445C11.3506 10.7183 12.139 11.2518 12.8032 11.9078C14.1605 13.2483 15 15.1001 15 17.1454C15 17.4813 14.9751 17.8244 14.9259 18.1718C14.8768 18.5178 14.8049 18.8549 14.7106 19.1805C14.5949 19.5823 14.1712 19.8153 13.7643 19.701C13.3575 19.5867 13.1215 19.1682 13.2373 18.7664C13.3151 18.4976 13.373 18.2296 13.4106 17.9648C13.4479 17.7015 13.4668 17.4276 13.4668 17.1454C13.4668 15.5181 12.7989 14.0448 11.7192 12.9785C10.6408 11.9134 9.15141 11.2542 7.50611 11.2526L7.50006 11.2526L7.49396 11.2526C5.84867 11.2542 4.35924 11.9134 3.28081 12.9785C2.20108 14.0448 1.53321 15.5181 1.53321 17.1454C1.53321 17.4282 1.55215 17.7026 1.58963 17.9665C1.62732 18.2317 1.68546 18.5001 1.76362 18.7696C1.87938 19.1714 1.64342 19.5899 1.23657 19.7042C0.829737 19.8185 0.406036 19.5855 0.290278 19.1837C0.195751 18.8578 0.123658 18.5202 0.0743616 18.1735C0.0249534 17.8256 0 17.482 0 17.1454C0 15.1001 0.839511 13.2483 2.19675 11.9078C2.86105 11.2518 3.64947 10.7183 4.52413 10.3445C4.25405 10.1618 4.002 9.95503 3.77128 9.72718C2.81701 8.78474 2.22672 7.4827 2.22672 6.04465C2.22672 4.60656 2.81701 3.30453 3.77128 2.36209C4.72555 1.41964 6.04393 0.83667 7.50006 0.83667ZM7.494 9.73835L7.50002 9.73831L7.50608 9.73835C8.53648 9.73672 9.46928 9.32364 10.1447 8.65656C10.8215 7.98819 11.2401 7.06466 11.2401 6.04465C11.2401 5.02461 10.8215 4.10108 10.1447 3.43271C9.46798 2.76434 8.53287 2.35088 7.50006 2.35088C6.46721 2.35088 5.53211 2.76434 4.85534 3.43271C4.17858 4.10108 3.75994 5.02461 3.75994 6.04465C3.75994 7.06466 4.17858 7.98819 4.85534 8.65656C5.53077 9.32361 6.46357 9.73672 7.494 9.73835Z" fill="white"/>
</svg>
